<?xml version="1.0" encoding="UTF-8" standalone="no"?>
<!DOCTYPE svg PUBLIC "-//W3C//DTD SVG 1.1//EN"
 "http://www.w3.org/Graphics/SVG/1.1/DTD/svg11.dtd">
<!-- Generated by graphviz version 2.40.1 (20161225.0304)
 -->
<!-- Title: G Pages: 1 -->
<svg width="170pt" height="346pt"
 viewBox="0.00 0.00 169.50 346.00" xmlns="http://www.w3.org/2000/svg" xmlns:xlink="http://www.w3.org/1999/xlink">
<g id="graph0" class="graph" transform="scale(1 1) rotate(0) translate(4 342)">
<title>G</title>
<polygon fill="#ffffff" stroke="transparent" points="-4,4 -4,-342 165.5,-342 165.5,4 -4,4"/>
<!-- A0 -->
<g id="node1" class="node">
<title>A0</title>
<polygon fill="none" stroke="#000000" points="3,-306 3,-338 79,-338 79,-306 3,-306"/>
<text text-anchor="start" x="16.8345" y="-319" font-family="Helvetica,sans-Serif" font-size="10.00" fill="#000000">A:HotDrink</text>
<polygon fill="none" stroke="#000000" points="3,-274 3,-306 79,-306 79,-274 3,-274"/>
<text text-anchor="start" x="39.6105" y="-287" font-family="Helvetica,sans-Serif" font-size="10.00" fill="#000000"> </text>
<polygon fill="none" stroke="#000000" points="3,-194 3,-274 79,-274 79,-194 3,-194"/>
<text text-anchor="start" x="29.197" y="-255" font-family="Helvetica,sans-Serif" font-size="10.00" fill="#000000">+Milk</text>
<text text-anchor="start" x="24.743" y="-243" font-family="Helvetica,sans-Serif" font-size="10.00" fill="#000000">+Sugar</text>
<text text-anchor="start" x="23.0885" y="-231" font-family="Helvetica,sans-Serif" font-size="10.00" fill="#000000">+Drink()</text>
<text text-anchor="start" x="16.9745" y="-219" font-family="Helvetica,sans-Serif" font-size="10.00" fill="#000000">+AddMilk()</text>
<text text-anchor="start" x="12.5205" y="-207" font-family="Helvetica,sans-Serif" font-size="10.00" fill="#000000">+AddSugar()</text>
</g>
<!-- A2 -->
<g id="node3" class="node">
<title>A2</title>
<polygon fill="none" stroke="#000000" points="0,-112 0,-144 76,-144 76,-112 0,-112"/>
<text text-anchor="start" x="9.9355" y="-125" font-family="Helvetica,sans-Serif" font-size="10.00" fill="#000000">CupofCoffee</text>
<polygon fill="none" stroke="#000000" points="0,-80 0,-112 76,-112 76,-80 0,-80"/>
<text text-anchor="start" x="36.6105" y="-93" font-family="Helvetica,sans-Serif" font-size="10.00" fill="#000000"> </text>
<polygon fill="none" stroke="#000000" points="0,0 0,-80 76,-80 76,0 0,0"/>
<text text-anchor="start" x="12.294" y="-61" font-family="Helvetica,sans-Serif" font-size="10.00" fill="#000000">+BeanType</text>
<text text-anchor="start" x="23.138" y="-49" font-family="Helvetica,sans-Serif" font-size="10.00" fill="#000000">+Color</text>
<text text-anchor="start" x="18.1335" y="-37" font-family="Helvetica,sans-Serif" font-size="10.00" fill="#000000">+Volume</text>
<text text-anchor="start" x="20.6445" y="-25" font-family="Helvetica,sans-Serif" font-size="10.00" fill="#000000">+Refill()</text>
<text text-anchor="start" x="18.973" y="-13" font-family="Helvetica,sans-Serif" font-size="10.00" fill="#000000">+Wash()</text>
</g>
<!-- A0&#45;&gt;A2 -->
<g id="edge1" class="edge">
<title>A0&#45;&gt;A2</title>
<path fill="none" stroke="#000000" stroke-dasharray="5,2" d="M39.723,-183.423C39.5219,-170.4142 39.3152,-157.0514 39.118,-144.2988"/>
<polygon fill="#000000" stroke="#000000" points="39.8829,-193.7616 35.2287,-183.8324 39.8056,-188.7622 39.7282,-183.7628 39.7282,-183.7628 39.7282,-183.7628 39.8056,-188.7622 44.2277,-183.6931 39.8829,-193.7616 39.8829,-193.7616"/>
</g>
<!-- A3 -->
<g id="node4" class="node">
<title>A3</title>
<polygon fill="none" stroke="#000000" points="95,-112 95,-144 162,-144 162,-112 95,-112"/>
<text text-anchor="start" x="106.549" y="-125" font-family="Helvetica,sans-Serif" font-size="10.00" fill="#000000">CupofTea</text>
<polygon fill="none" stroke="#000000" points="95,-80 95,-112 162,-112 162,-80 95,-80"/>
<text text-anchor="start" x="127.1105" y="-93" font-family="Helvetica,sans-Serif" font-size="10.00" fill="#000000"> </text>
<polygon fill="none" stroke="#000000" points="95,0 95,-80 162,-80 162,0 95,0"/>
<text text-anchor="start" x="104.739" y="-61" font-family="Helvetica,sans-Serif" font-size="10.00" fill="#000000">+LeafType</text>
<text text-anchor="start" x="113.638" y="-49" font-family="Helvetica,sans-Serif" font-size="10.00" fill="#000000">+Color</text>
<text text-anchor="start" x="108.6335" y="-37" font-family="Helvetica,sans-Serif" font-size="10.00" fill="#000000">+Volume</text>
<text text-anchor="start" x="111.1445" y="-25" font-family="Helvetica,sans-Serif" font-size="10.00" fill="#000000">+Refill()</text>
<text text-anchor="start" x="109.473" y="-13" font-family="Helvetica,sans-Serif" font-size="10.00" fill="#000000">+Wash()</text>
</g>
<!-- A0&#45;&gt;A3 -->
<g id="edge2" class="edge">
<title>A0&#45;&gt;A3</title>
<path fill="none" stroke="#000000" stroke-dasharray="5,2" d="M77.5125,-184.5813C83.5096,-171.2086 89.6885,-157.4302 95.5774,-144.2988"/>
<polygon fill="#000000" stroke="#000000" points="73.3956,-193.7616 73.3815,-182.7957 75.4416,-189.1993 77.4876,-184.6371 77.4876,-184.6371 77.4876,-184.6371 75.4416,-189.1993 81.5936,-186.4784 73.3956,-193.7616 73.3956,-193.7616"/>
</g>
<!-- A1 -->
<g id="node2" class="node">
<title>A1</title>
<polygon fill="none" stroke="#000000" points="100,-284 100,-316 153,-316 153,-284 100,-284"/>
<text text-anchor="start" x="113.163" y="-297" font-family="Helvetica,sans-Serif" font-size="10.00" fill="#000000">I:ICup</text>
<polygon fill="none" stroke="#000000" points="100,-216 100,-284 153,-284 153,-216 100,-216"/>
<text text-anchor="start" x="114.5575" y="-265" font-family="Helvetica,sans-Serif" font-size="10.00" fill="#000000">Color</text>
<text text-anchor="start" x="109.553" y="-253" font-family="Helvetica,sans-Serif" font-size="10.00" fill="#000000">Volume</text>
<text text-anchor="start" x="112.064" y="-241" font-family="Helvetica,sans-Serif" font-size="10.00" fill="#000000">Refill()</text>
<text text-anchor="start" x="110.3925" y="-229" font-family="Helvetica,sans-Serif" font-size="10.00" fill="#000000">Wash()</text>
</g>
<!-- A1&#45;&gt;A2 -->
<g id="edge3" class="edge">
<title>A1&#45;&gt;A2</title>
<path fill="none" stroke="#000000" d="M99.0732,-206.6386C90.147,-186.9604 80.1113,-164.8363 70.7939,-144.2955"/>
<polygon fill="none" stroke="#000000" points="95.9049,-208.1269 103.2234,-215.7879 102.2798,-205.2351 95.9049,-208.1269"/>
</g>
<!-- A1&#45;&gt;A3 -->
<g id="edge4" class="edge">
<title>A1&#45;&gt;A3</title>
<path fill="none" stroke="#000000" d="M126.623,-205.5677C126.8231,-186.1601 127.0468,-164.4645 127.2547,-144.2955"/>
<polygon fill="none" stroke="#000000" points="123.121,-205.7523 126.5177,-215.7879 130.1206,-205.8245 123.121,-205.7523"/>
</g>
</g>
</svg>
